Coordinates
version=1
nRows=13
nColumns=34
inDegrees=yes

Units are S.I. units (second, meters, Newtons, ...)
If the header above contains a line with 'inDegrees', this indicates whether rotational values are in degrees (yes) or radians (no).

endheader
time	pelvis_tilt	pelvis_list	pelvis_rotation	pelvis_tx	pelvis_ty	pelvis_tz	hip_flexion_r	hip_adduction_r	hip_rotation_r	knee_angle_r	ankle_angle_r	subtalar_angle_r	mtp_angle_r	hip_flexion_l	hip_adduction_l	hip_rotation_l	knee_angle_l	ankle_angle_l	subtalar_angle_l	mtp_angle_l	lumbar_extension	lumbar_bending	lumbar_rotation	arm_flex_r	arm_add_r	arm_rot_r	elbow_flex_r	pro_sup_r	arm_flex_l	arm_add_l	arm_rot_l	elbow_flex_l	pro_sup_l
      2.36666670	      0.72053052	     -0.77293571	      0.32100446	      1.70206805	      0.86737905	     -0.05011210	     -2.91072688	     -4.09727724	    -10.33102280	      0.93554345	      1.72698086	    -15.37210971	      0.00000000	     -3.10578004	     -5.62498866	     -3.00340628	      0.32633237	      5.91789374	     -0.89548137	      0.00000000	     -7.77284211	      1.88109519	     -1.60634271	      7.51834271	     -8.55659511	     35.00010234	     74.18327684	     84.62568708	     10.45556669	     -7.99337972	     39.38060419	     58.30843865	     83.81269609
      2.38333330	      0.71087375	     -0.79117627	      0.32651682	      1.70215017	      0.86702376	     -0.05071540	     -2.91698472	     -4.11796151	    -10.32800039	      0.94979857	      1.72541364	    -15.37179273	      0.00000000	     -3.10241623	     -5.62628831	     -3.00855963	      0.33890261	      5.92305231	     -0.90162748	      0.00000000	     -7.77716502	      1.87973250	     -1.60394204	      7.52491518	     -8.55697961	     34.99684953	     74.18419720	     84.62351578	     10.45612466	     -7.99045481	     39.37758327	     58.30790577	     83.81295142
      2.40000000	      0.70890295	     -0.79381630	      0.32830705	      1.70205333	      0.86663256	     -0.05072189	     -2.91776920	     -4.12151540	    -10.32739766	      0.95302767	      1.72494611	    -15.37161573	      0.00000000	     -3.10331309	     -5.62541956	     -3.00939310	      0.34228303	      5.92402905	     -0.90275161	      0.00000000	     -7.77814619	      1.87998909	     -1.60379820	      7.52602608	     -8.55736929	     34.99616010	     74.18443828	     84.62315519	     10.45578242	     -7.98971367	     39.37726261	     58.30771077	     83.81299936
      2.41666670	      0.70476696	     -0.80184075	      0.33161523	      1.70199600	      0.86673637	     -0.05051571	     -2.91791138	     -4.12881617	    -10.32671864	      0.95576110	      1.72456723	    -15.37150974	      0.00000000	     -3.10512342	     -5.62333014	     -3.01003309	      0.34578066	      5.92494525	     -0.90377180	      0.00000000	     -7.77916482	      1.88045330	     -1.60377082	      7.52704094	     -8.55777342	     34.99554327	     74.18476689	     84.62288547	     10.45540784	     -7.98908058	     39.37707936	     58.30751040	     83.81303425
      2.43333330	      0.46561004	     -0.72014867	      0.34231065	      1.70135347	      0.86706774	     -0.05067718	     -2.20340567	     -4.35504473	    -10.15289061	      1.79278499	      1.96818080	    -15.69049339	      0.00000000	     -2.41582831	     -5.51785167	     -2.83907039	      1.13162691	      6.41594781	     -1.47675753	      0.00000000	     -7.84237079	      1.86654362	     -1.60977874	      7.54618441	     -8.65357820	     34.75192586	     74.64963814	     84.25240014	     10.38372452	     -7.73721196	     38.84738146	     58.11775170	     83.86128452
      2.45000000	      0.45336396	     -0.72558810	      0.34584864	      1.70183496	      0.86751521	     -0.05085868	     -2.19965614	     -4.36972604	    -10.15239371	      1.79534308	      1.96474771	    -15.68948735	      0.00000000	     -2.42078528	     -5.52169512	     -2.84037013	      1.13382906	      6.41482334	     -1.47827481	      0.00000000	     -7.84722564	      1.86952297	     -1.60958700	      7.54717247	     -8.65191212	     34.75127309	     74.65039467	     84.25091899	     10.38538749	     -7.73885396	     38.84544819	     58.11622277	     83.86156630
      2.46666670	      0.39844321	     -0.69181568	      0.35021482	      1.70197571	      0.86755381	     -0.05148594	     -2.10146587	     -4.45016495	    -10.13537333	      1.86662369	      1.91235506	    -15.66716459	      0.00000000	     -2.37861093	     -5.46022264	     -2.85299554	      1.10120208	      6.41421157	     -1.50434408	      0.00000000	     -7.96988371	      1.95327505	     -1.64660792	      7.51590854	     -8.63558060	     34.74958363	     74.65532659	     84.22945459	     10.40150695	     -7.74495122	     38.82332519	     58.08202652	     83.86592095
      2.48333330	      0.38891166	     -0.70688407	      0.34534834	      1.70186546	      0.86719673	     -0.05201941	     -2.08947967	     -4.46390490	    -10.13532059	      1.87027847	      1.91066782	    -15.66740630	      0.00000000	     -2.38531724	     -5.45731850	     -2.85258549	      1.10500016	      6.41407126	     -1.50622905	      0.00000000	     -7.97716011	      1.95296059	     -1.65117730	      7.51564726	     -8.63263686	     34.74915083	     74.65756379	     84.22771212	     10.40492904	     -7.74404785	     38.82121037	     58.07966808	     83.86627111
      2.50000000	      0.30108596	     -0.68257608	      0.25617873	      1.70137751	      0.86677561	     -0.05236540	     -1.91806859	     -4.53764623	    -10.13457188	      1.92835537	      1.89606396	    -15.67172883	      0.00000000	     -2.32593650	     -5.38723660	     -2.85244671	      1.05289078	      6.43939199	     -1.54177676	      0.00000000	     -8.15078341	      2.03199756	     -1.73137131	      7.49332320	     -8.61130478	     34.75044391	     74.67462339	     84.20896954	     10.46902252	     -7.71584374	     38.79665064	     58.05161592	     83.86997543
      2.51666670	      0.20479740	     -0.65793730	      0.28091174	      1.70089911	      0.86654174	     -0.05285191	     -1.71864733	     -4.61120088	    -10.11092684	      2.07137480	      1.88625334	    -15.67873146	      0.00000000	     -2.22085180	     -5.31969829	     -2.87664747	      0.98404361	      6.47355225	     -1.60824806	      0.00000000	     -8.31444786	      2.10855960	     -1.75007751	      7.54776527	     -8.55512085	     34.74932476	     74.73549144	     84.18337464	     10.53037631	     -7.70226003	     38.75299576	     58.01094119	     83.87471064
      2.53333330	      0.15665908	     -0.66862089	      0.15334954	      1.70055706	      0.86666403	     -0.05326074	     -1.59309046	     -4.63759705	    -10.13119425	      2.09635493	      1.90128139	    -15.70297417	      0.00000000	     -2.19148969	     -5.28947261	     -2.85927795	      0.99167028	      6.47419973	     -1.62507240	      0.00000000	     -8.38375939	      2.13165102	     -1.79695756	      7.55962596	     -8.55470628	     34.74668578	     74.76456312	     84.17083686	     10.57804746	     -7.67738580	     38.73108910	     58.00076996	     83.87725861
      2.55000000	      0.01746079	     -0.64908205	      0.16677592	      1.70000721	      0.86685882	     -0.05380254	     -1.37228332	     -4.69831531	    -10.11723238	      2.14760432	      1.91394583	    -15.71670308	      0.00000000	     -2.04787529	     -5.21434677	     -2.89049172	      0.88450109	      6.50142872	     -1.68328029	      0.00000000	     -8.59871391	      2.22437706	     -1.81620312	      7.60646616	     -8.54643014	     34.74763263	     74.80801849	     84.15192143	     10.63911940	     -7.65969318	     38.69107861	     57.97153423	     83.88039088
      2.56666670	     -0.23808755	     -0.64740346	     -0.01089730	      1.69899148	      0.86670697	     -0.05391434	     -0.69943363	     -4.79667122	    -10.04566024	      2.68944801	      1.98165545	    -15.78647121	      0.00000000	     -1.69317437	     -5.16354142	     -2.90735348	      0.99097834	      6.41200673	     -1.88998651	      0.00000000	     -8.68076585	      2.29028437	     -1.82803185	      7.83479548	     -8.53882328	     34.77610729	     75.16365083	     84.05034780	     10.82236910	     -7.56474381	     38.45120270	     57.89302899	     83.90120004
